<svg xmlns="http://www.w3.org/2000/svg" xmlns:xlink="http://www.w3.org/1999/xlink" viewBox="0 0 2504.8275 2000">
  <defs>
    <style>
      .cls-1 {
        fill: none;
      }

      .cls-2 {
        fill: url(#linear-gradient);
      }

      .cls-3 {
        fill: url(#linear-gradient-2);
      }

      .cls-4 {
        fill: url(#linear-gradient-3);
      }

      .cls-5 {
        fill: url(#linear-gradient-4);
      }

      .cls-6 {
        fill: url(#linear-gradient-5);
      }

      .cls-7 {
        fill: url(#linear-gradient-6);
      }

      .cls-8 {
        fill: #0082fb;
      }

      .cls-9 {
        fill: url(#linear-gradient-7);
      }

      .cls-10 {
        fill: url(#linear-gradient-8);
      }

      .cls-11 {
        fill: url(#linear-gradient-9);
      }

      .cls-12 {
        fill: url(#linear-gradient-10);
      }

      .cls-13 {
        fill: url(#linear-gradient-11);
      }

      .cls-14 {
        fill: url(#linear-gradient-12);
      }

      .cls-15 {
        fill: url(#linear-gradient-13);
      }
    </style>
    <linearGradient id="linear-gradient" x1="1348.5817" y1="1011.6554" x2="1011.4866" y2="569.9437" gradientUnits="userSpaceOnUse">
      <stop offset="0.0006" stop-color="#0867df"/>
      <stop offset="0.4539" stop-color="#0668e1"/>
      <stop offset="0.8591" stop-color="#0064e0"/>
    </linearGradient>
    <linearGradient id="linear-gradient-2" x1="692.325" y1="725.5183" x2="923.4244" y2="550.0693" gradientUnits="userSpaceOnUse">
      <stop offset="0.1323" stop-color="#0064df"/>
      <stop offset="0.9988" stop-color="#0064e0"/>
    </linearGradient>
    <linearGradient id="linear-gradient-3" x1="594.3714" y1="982.9831" x2="687.0739" y2="749.6225" gradientUnits="userSpaceOnUse">
      <stop offset="0.0147" stop-color="#0072ec"/>
      <stop offset="0.6881" stop-color="#0064df"/>
    </linearGradient>
    <linearGradient id="linear-gradient-4" x1="581.7822" y1="1151.5654" x2="592.5085" y2="1009.0459" gradientUnits="userSpaceOnUse">
      <stop offset="0.0731" stop-color="#007cf6"/>
      <stop offset="0.9943" stop-color="#0072ec"/>
    </linearGradient>
    <linearGradient id="linear-gradient-5" x1="587.6811" y1="1228.9801" x2="580.0084" y2="1171.8797" gradientUnits="userSpaceOnUse">
      <stop offset="0.0731" stop-color="#007ff9"/>
      <stop offset="1" stop-color="#007cf6"/>
    </linearGradient>
    <linearGradient id="linear-gradient-6" x1="583.1771" y1="1243.9792" x2="630.9935" y2="1345.3975" gradientUnits="userSpaceOnUse">
      <stop offset="0.0731" stop-color="#007ff9"/>
      <stop offset="1" stop-color="#0082fb"/>
    </linearGradient>
    <linearGradient id="linear-gradient-7" x1="1318.1087" y1="753.2598" x2="1381.3236" y2="665.8302" gradientUnits="userSpaceOnUse">
      <stop offset="0.2799" stop-color="#007ff8"/>
      <stop offset="0.9141" stop-color="#0082fb"/>
    </linearGradient>
    <linearGradient id="linear-gradient-8" x1="1798.7361" y1="639.9469" x2="1930.9821" y2="1126.4232" gradientUnits="userSpaceOnUse">
      <stop offset="0" stop-color="#0082fb"/>
      <stop offset="0.9995" stop-color="#0081fa"/>
    </linearGradient>
    <linearGradient id="linear-gradient-9" x1="1962.9101" y1="1145.0338" x2="1879.2167" y2="1314.1626" gradientUnits="userSpaceOnUse">
      <stop offset="0.0619" stop-color="#0081fa"/>
      <stop offset="1" stop-color="#0080f9"/>
    </linearGradient>
    <linearGradient id="linear-gradient-10" x1="1812.6984" y1="1403.8289" x2="1890.9332" y2="1350.5433" gradientUnits="userSpaceOnUse">
      <stop offset="0" stop-color="#027af3"/>
      <stop offset="1" stop-color="#0080f9"/>
    </linearGradient>
    <linearGradient id="linear-gradient-11" x1="1689.9984" y1="1414.2404" x2="1798.7138" y2="1414.2404" gradientUnits="userSpaceOnUse">
      <stop offset="0" stop-color="#0377ef"/>
      <stop offset="0.9994" stop-color="#0279f1"/>
    </linearGradient>
    <linearGradient id="linear-gradient-12" x1="1595.4817" y1="1354.3673" x2="1673.64" y2="1400.3498" gradientUnits="userSpaceOnUse">
      <stop offset="0.0019" stop-color="#0471e9"/>
      <stop offset="1" stop-color="#0377ef"/>
    </linearGradient>
    <linearGradient id="linear-gradient-13" x1="1357.0652" y1="1015.3065" x2="1607.4353" y2="1330.0984" gradientUnits="userSpaceOnUse">
      <stop offset="0.2765" stop-color="#0867df"/>
      <stop offset="1" stop-color="#0471e9"/>
    </linearGradient>
  </defs>
  <g id="Artboard_outline" data-name="Artboard outline">
    <rect class="cls-1" width="2504.8275" height="2000"/>
  </g>
  <g id="Symbol">
    <g>
      <path class="cls-2" d="M932.41,500c-.4839,0-.9653.0017-1.4487.0042l-1.9788,163.4525c.4529-.0048.905-.0088,1.3584-.0088l.0012,0c107.586,0,191.0355,84.8273,372.4145,390.3439l11.0567,18.5992.7236,1.2174,101.5337-152.3428-.7031-1.1766v0q-35.8428-58.2938-68.8663-107.2692c-25.5327-37.83-49.95-71.6254-73.6468-101.7986C1152.8663,558.2461,1052.4947,500,932.41,500Z"/>
      <path class="cls-3" d="M930.9613,500.0042c-120.668.6208-227.3467,78.6492-304.3782,198.0491q-.3382.5242-.6765,1.05l141.4,76.9618c.23-.3477.4605-.6962.6906-1.0426,44.9819-67.7263,100.96-110.9232,160.9856-111.5663.4529-.0048.905-.0088,1.3584-.0088L932.41,500C931.9261,500,931.4447,500.0017,930.9613,500.0042Z"/>
      <path class="cls-4" d="M626.5831,698.0533q-.3382.5242-.6765,1.05c-50.6181,78.7956-88.3524,175.4876-108.7451,279.8q-.1324.6771-.2641,1.3557l158.8571,37.4823q.1245-.6792.25-1.3591c16.98-91.673,49.3076-176.6968,91.3014-240.317.23-.3477.4605-.6962.6906-1.0426Z"/>
      <path class="cls-5" d="M676.0049,1016.3826,517.1615,978.9037q-.1324.6771-.2641,1.3557a924.7386,924.7386,0,0,0-16.8958,174.0944q-.0014.7086-.0011,1.4168l162.9142,14.5749c-.0129-.4742-.0264-.9428-.0376-1.4188q-.12-5.0835-.1218-10.3053a784.47,784.47,0,0,1,12.9992-140.88Q675.879,1017.0625,676.0049,1016.3826Z"/>
      <path class="cls-6" d="M667.87,1221.1737a340.3583,340.3583,0,0,1-4.9551-50.8282c-.0129-.4742-.0264-.9428-.0376-1.4188l-162.8755-14.5729q-.0014.7086-.0011,1.4168l0,.0922c0,36.3676,3.0328,70.4191,8.9271,101.8756.0852.4552.169.9019.2555,1.356l158.9333-36.56C668.0324,1222.0827,667.9513,1221.6278,667.87,1221.1737Z"/>
      <path class="cls-7" d="M704.9861,1305.4934c-17.7277-19.35-30.2738-47.2616-36.87-82.959-.0835-.4517-.1646-.9066-.2461-1.3607l-158.9427,36.5647c.0852.4552.169.9019.2555,1.356,12.0135,63.0747,35.5741,115.6419,69.3147,155.41q.45.53.9032,1.0594l126.5324-109.0514C705.6168,1306.1756,705.2994,1305.8352,704.9861,1305.4934Z"/>
      <path class="cls-8" d="M1175.866,853.3607c-95.7786,146.91-153.8009,239.054-153.8009,239.054C894.4789,1292.4142,850.3411,1337.24,779.3068,1337.24c-29.6406,0-54.4032-10.5534-73.3739-30.7275-.3161-.3365-.6335-.6769-.9468-1.0187L578.4973,1414.5041q.45.53.9032,1.0594C625.9885,1469.8686,691.7484,1500,773.1,1500c123.08,0,211.6-58.0258,368.9646-333.1028,0,0,65.6-115.8428,110.7278-195.64C1224.8383,926.1237,1199.3992,887.0506,1175.866,853.3607Z"/>
      <path class="cls-9" d="M1346.5827,621.48c-.323.3427-.6521.693-.9748,1.0367-25.1518,26.7978-49.29,56.7241-72.7733,88.4754,23.6972,30.1731,48.16,64.0342,73.693,101.8644,30.0932-46.4471,58.1829-84.0654,85.7149-112.8978.3264-.3419.6462-.6741.9726-1.0135Z"/>
      <path class="cls-8" d="M1811.5776,607.0792c-66.7938-67.4815-146.4389-107.077-231.5823-107.077-89.7793,0-165.2977,49.1989-233.4126,121.4781-.323.3427-.6521.693-.9748,1.0367l86.6346,77.442c.3264-.3419.6462-.6741.9726-1.0135,44.8722-46.6743,88.2967-69.9779,136.4365-69.9779l-.0017,0c51.8126,0,100.32,24.3907,142.33,67.1506.3291.3352.6558.6674.9844,1.0049l99.6092-89.0389C1812.2414,607.7472,1811.9094,607.4145,1811.5776,607.0792Z"/>
      <path class="cls-10" d="M2004.68,1132.8435c-3.7422-216.67-79.563-410.371-192.1072-524.76-.3316-.3367-.6636-.6694-.9954-1.0047l-99.5982,89.0387c.3291.3352.6558.6674.9844,1.0049,84.6658,86.9687,142.7375,248.733,148.0192,435.6745q.0205.7054.04,1.4117l143.68.0462Q2004.6917,1133.55,2004.68,1132.8435Z"/>
      <path class="cls-11" d="M2004.7029,1134.2552q-.0112-.7056-.0227-1.4117l-143.6972-.0462q.0205.7054.04,1.4117.3531,13.1611.3508,26.4813c0,50.9695-7.6122,92.1713-23.0946,121.9174-.2295.4412-.4639.884-.6968,1.32l107.1357,111.424c.2649-.4039.5264-.8066.79-1.2127,38.8944-60.0138,59.3141-143.3839,59.3141-244.4832Q2004.8216,1141.9365,2004.7029,1134.2552Z"/>
      <path class="cls-12" d="M1838.279,1282.6077c-.2295.4412-.4639.884-.6968,1.32-13.4,25.0736-32.5236,41.797-57.5233,49.11l48.8419,153.9217q9.7009-3.294,18.8886-7.3972,2.7452-1.2219,5.4439-2.5155,1.5564-.745,3.0986-1.5122c32.2936-16.0966,59.5851-39.8356,81.6588-70.4228,1.3476-1.8674,2.6826-3.7511,3.9914-5.6693q1.3824-2.0265,2.7358-4.0905c.2649-.4039.5264-.8066.79-1.2127Z"/>
      <path class="cls-13" d="M1748.9632,1337.24c-16.3781,0-30.8283-2.4383-44.9674-8.7567l-50.0081,157.5851c28.1069,9.6028,58.0908,13.93,91.5273,13.93,30.8085,0,59.087-4.613,84.7229-13.4973L1781.41,1332.6314A109.6208,109.6208,0,0,1,1748.9632,1337.24Z"/>
      <path class="cls-14" d="M1648.8946,1283.3436q-.4614-.5328-.9258-1.0734L1532.9,1401.9439q.4824.5168.9651,1.03c39.9836,42.6091,78.1608,69.0409,121.461,83.5469l49.9689-157.4685C1687.0483,1321.215,1669.4026,1307.0085,1648.8946,1283.3436Z"/>
      <path class="cls-15" d="M1647.9688,1282.27c-34.5163-40.1387-77.2127-106.9673-144.3764-215.0335l-87.5218-145.9712-.7031-1.1766v0L1313.8133,1072.39l0,0,0,0,.7236,1.2174,62.016,104.3256c60.1136,100.5949,109.0867,173.3692,156.3475,224.01q.4824.5168.9651,1.03l115.0291-119.63Q1648.4332,1282.8108,1647.9688,1282.27Z"/>
    </g>
  </g>
</svg>
